<svg width="89" height="82" viewBox="0 0 89 82" fill="none" xmlns="http://www.w3.org/2000/svg">
<path d="M86.1209 56.2788C76.3188 39.1638 66.6487 22.463 58.4848 8.38331C54.6714 1.80763 47.9683 -1.16849 40.5553 0.419687C36.0138 1.39352 32.4006 4.15576 29.8249 8.62904C25.9842 15.2912 22.1389 21.9488 18.2936 28.6109C13.033 37.7167 7.77705 46.8226 2.53016 55.9375C1.7702 57.2617 1.22412 58.6906 0.696248 60.0786L0.668944 60.1469C0.432311 60.7748 0.304893 61.4119 0.182026 62.0263C0.131969 62.2811 0.0819115 62.5405 0.0227532 62.7908L0 62.8909V66.5132L0.0409558 66.6452C0.063709 66.7134 0.0864622 66.7862 0.109215 66.8545C0.14107 66.941 0.168374 67.0274 0.177475 67.0775C0.664394 70.1355 1.88397 72.8431 3.79979 75.1185C7.0808 79.0229 11.4312 81.0024 16.7236 81.0024C16.7282 81.0024 16.7373 81.0024 16.7418 81.0024C29.5701 80.9933 42.3983 80.9933 55.2266 80.9933H71.8319C72.2232 80.9933 72.6282 80.9933 73.0423 80.966C78.1618 80.5929 82.2073 78.404 85.0697 74.4586C89.2608 68.6839 89.6249 62.3949 86.1209 56.2788ZM76.7921 70.4541C75.3905 71.619 73.6885 72.1605 71.4314 72.1605C71.4223 72.1605 71.4132 72.1605 71.4041 72.1605C64.7829 72.1469 58.1572 72.1514 51.536 72.1514H44.1685L36.6327 72.1469C30.1753 72.1423 23.4995 72.1423 16.9284 72.1605C16.9147 72.1605 16.9011 72.1605 16.892 72.1605C14.2435 72.1605 12.3231 71.4006 10.8578 69.7715C8.48695 67.1366 8.19571 63.7646 10.0706 60.52C14.4346 52.9568 18.8078 45.3937 23.1764 37.8305L29.1969 27.3959C32.0001 22.5449 34.8033 17.6939 37.6019 12.8429C39.0491 10.3355 41.0468 9.0386 43.7135 8.87478C43.9273 8.86113 44.1321 8.85658 44.3369 8.85658C46.9854 8.85658 48.9968 9.93053 50.321 12.0602C52.1367 14.9772 53.875 18.0216 55.5588 20.9613C56.164 22.017 56.7692 23.0773 57.379 24.1331C59.5724 27.9329 61.7659 31.7372 63.9547 35.537C68.6692 43.7145 73.5429 52.1741 78.3802 60.47C80.3871 63.9057 79.7318 68.0104 76.7921 70.4541Z" fill="#01154B"/>
<path d="M49.5156 29.1161C49.3882 27.3504 48.3597 25.7759 46.7625 24.9022C45.188 24.0375 43.3313 24.0193 41.8068 24.8475C39.618 26.0353 38.5986 28.0967 38.7761 30.9818C39.1037 36.2515 39.527 43.1866 39.9274 50.1127C40.073 52.6565 41.8341 54.4267 44.205 54.4267C44.2141 54.4267 44.2232 54.4267 44.2323 54.4267C46.5941 54.4131 48.428 52.5245 48.4917 50.0353C48.5008 49.7032 48.5008 49.3755 48.5054 49.0433C48.5099 48.52 48.5099 48.024 48.5418 47.5325C48.7875 43.3505 49.0469 39.1639 49.3017 34.9818L49.6066 30.008L49.5384 30.0034C49.5429 29.7122 49.5384 29.4209 49.5156 29.1161Z" fill="#01154B"/>
<path d="M44.2368 55.6509C44.2322 55.6509 44.2277 55.6509 44.2231 55.6509C42.7897 55.6509 41.4427 56.2106 40.4279 57.2254C39.4131 58.2402 38.8579 59.5826 38.8579 61.007C38.8579 62.4222 39.4586 63.8193 40.4961 64.8432C41.5109 65.8398 42.817 66.3904 44.1776 66.3904C44.2049 66.3904 44.2277 66.3904 44.255 66.3904C47.1446 66.3494 49.4973 63.9694 49.5064 61.0843C49.511 59.6145 48.974 58.2493 48.0001 57.2391C47.0172 56.2152 45.6793 55.6554 44.2368 55.6509Z" fill="#01154B"/>
</svg>
