<svg width="43" height="42" viewBox="0 0 43 42" fill="none" xmlns="http://www.w3.org/2000/svg">
<path d="M41.9996 19.5035C41.9661 19.2715 41.935 19.0418 41.9039 18.8097C41.8369 18.3049 41.7651 17.7833 41.6718 17.2714C40.7316 12.1706 38.1979 7.91198 34.1403 4.61515C31.3076 2.31597 28.0682 0.861348 24.5082 0.29433C18.9241 -0.593279 13.7851 0.528793 9.22981 3.63184C4.67932 6.73249 1.77006 10.9672 0.583394 16.2139C-0.883195 22.6999 0.418313 28.65 4.45442 33.8943C7.51201 37.8682 11.6103 40.4425 16.6369 41.5454C17.2063 41.6698 17.7877 41.7416 18.3499 41.811C18.6227 41.8445 18.8954 41.878 19.1658 41.9187C19.2351 41.9282 19.3021 41.945 19.3715 41.9617C19.4098 41.9713 19.4505 41.9809 19.4888 41.9904L22.4937 42L22.52 41.9952C22.7521 41.9617 22.9866 41.9306 23.221 41.8995C23.7234 41.8325 24.245 41.7631 24.757 41.6674C29.8601 40.7248 34.1164 38.1888 37.406 34.1311C39.6526 31.3607 41.1072 28.1212 41.7316 24.5014C41.8106 24.0421 41.8704 23.5779 41.9254 23.1257C41.9517 22.9176 41.978 22.7118 42.0067 22.5037L42.0091 19.5538L41.9996 19.5035ZM38.0544 20.9869C38.0496 25.5565 36.2887 29.8366 33.0972 33.0378C29.9032 36.2413 25.6135 38.0237 21.0223 38.0572C21.0152 38.0572 21.008 38.0572 21.0008 38.0572C16.4718 38.0572 12.2037 36.2844 8.9786 33.0617C5.74636 29.8319 3.96636 25.5493 3.96636 21.0036C3.96875 16.4531 5.75115 12.1682 8.98577 8.93835C12.206 5.72286 16.4694 3.95482 20.9936 3.95482C21.0032 3.95482 21.0128 3.95482 21.0223 3.95482C30.4248 3.97157 38.0639 11.6108 38.0544 20.9869Z" fill="#01154B"/>
<path d="M25.4938 21.5035L24.9962 21.0083C26.513 19.4962 27.7188 18.2904 28.8528 17.1492C29.8625 16.1348 30.0419 14.7304 29.3074 13.5748C28.7882 12.7566 27.9102 12.2686 26.9604 12.2686C26.1948 12.2686 25.4603 12.5796 24.8909 13.1466C23.9004 14.1299 22.9004 15.1324 21.9314 16.1013C21.6252 16.4075 21.3189 16.7138 21.0151 17.02L20.5844 16.5894C19.4456 15.4529 18.3068 14.3141 17.1728 13.1753C16.4287 12.4289 15.6488 12.2709 15.1272 12.2709C15.0291 12.2709 14.9286 12.2757 14.8281 12.2877C13.6893 12.4097 12.8232 13.0892 12.4476 14.1514C12.0672 15.2328 12.316 16.2879 13.151 17.1253C14.0649 18.0416 14.9813 18.9579 15.8952 19.8718L17.0316 21.0083C16.5962 21.4437 16.1631 21.8767 15.7277 22.3122C14.8832 23.1567 14.0386 24.0013 13.1941 24.8434C12.3208 25.7119 12.2275 26.6282 12.3041 27.2431C12.4428 28.3795 13.1367 29.236 14.2061 29.5949C14.5147 29.6978 14.8257 29.7504 15.1296 29.7504C15.8665 29.7504 16.5579 29.4513 17.1273 28.8819C18.3762 27.6378 19.6944 26.3196 21.0151 24.9918L21.7328 25.7119C22.7712 26.755 23.8454 27.8316 24.91 28.8843C25.4699 29.4394 26.1972 29.7432 26.9556 29.7432C27.9963 29.7432 28.9438 29.1594 29.4318 28.2216C30.0251 27.078 29.805 25.8148 28.8385 24.8458C27.7355 23.7405 26.6326 22.6399 25.4938 21.5035Z" fill="#01154B"/>
</svg>
