<svg width="19" height="22" viewBox="0 0 19 22" fill="none" xmlns="http://www.w3.org/2000/svg">
<g clip-path="url(#clip0_10_30)">
<path d="M18.8735 19.2243C18.4611 17.0543 17.3226 15.3012 15.4897 14.0134C12.3323 11.7975 8.92697 11.4418 5.36605 12.959C2.38196 14.2302 0.602138 16.4385 0.0784361 19.5227C0.0164521 19.8861 -0.00758256 20.2902 0.00380226 20.7607C0.021512 21.4887 0.628702 21.9987 1.47877 21.9987C2.69188 21.9987 3.905 22 5.11812 22C5.84801 22 6.57917 22 7.30906 22H9.49495H10.6625C12.9205 22 15.1798 22 17.4378 21.9987C17.5883 21.9987 17.7489 21.9949 17.9147 21.9694C18.5282 21.8751 19.0152 21.3115 19.0013 20.7123C18.9886 20.2596 18.9696 19.7331 18.8735 19.2243ZM16.1323 19.2715H2.86898C3.15234 18.2706 3.68616 17.419 4.49195 16.6782C5.58363 15.676 6.91439 15.0679 8.44628 14.8702C10.5006 14.605 12.3513 15.0577 13.9464 16.2166C15.0469 17.0135 15.7806 18.0411 16.1323 19.2715Z" fill="#01154B"/>
<path d="M9.24574 10.9305C9.33049 10.9343 9.41525 10.9356 9.5 10.9356C10.894 10.9356 12.2083 10.4154 13.2228 9.45662C14.2917 8.44683 14.8964 7.06856 14.9242 5.57682C14.9533 4.08635 14.4069 2.68896 13.3873 1.63964C12.3614 0.585222 10.9876 0.00255051 9.51897 0.00127552C6.61332 -0.0509992 4.12384 2.38679 4.07071 5.32055C4.01758 8.33208 6.29075 10.7966 9.24574 10.9305ZM9.47344 2.70681C9.48356 2.70681 9.49368 2.70681 9.50379 2.70681C10.2476 2.71573 10.9421 3.01026 11.4595 3.53683C11.9756 4.06213 12.2551 4.757 12.2463 5.49394C12.2374 6.24364 11.9414 6.93724 11.4114 7.44596C10.8801 7.95723 10.1616 8.23518 9.4026 8.2237C7.95546 8.20585 6.74234 6.93086 6.75373 5.43912C6.75879 4.7111 7.05353 4.02133 7.58229 3.49858C8.10093 2.98731 8.77137 2.70681 9.47344 2.70681Z" fill="#01154B"/>
</g>
<defs>
<clipPath id="clip0_10_30">
<rect width="19" height="22" fill="white"/>
</clipPath>
</defs>
</svg>
