<svg width="22" height="25" viewBox="0 0 22 25" fill="none" xmlns="http://www.w3.org/2000/svg">
<g clip-path="url(#clip0_5_5)">
<path d="M8.03217 3.2861C8.03087 3.65806 8.02957 4.03133 8.03087 4.40329C8.03217 4.89575 8.26425 5.24806 8.68434 5.39475C8.78806 5.43142 8.89697 5.44976 9.00459 5.44976C9.20426 5.44976 9.40263 5.3882 9.56859 5.26902C9.81883 5.08959 9.96404 4.81061 9.96663 4.50414C9.97701 3.19834 9.97182 1.91089 9.96663 0.935143C9.96404 0.436138 9.61138 0.185981 9.30409 0.023575L9.2626 0H8.75305L8.71675 0.0157167C8.23054 0.227892 8.01013 0.610331 8.02309 1.21804C8.03735 1.90565 8.03476 2.60766 8.03217 3.2861Z" fill="#01154B"/>
<path d="M21.9222 5.44059C21.7848 5.1184 21.4943 4.90622 21.1456 4.87086C20.8512 4.84205 20.5543 4.84336 20.2678 4.84597C20.1731 4.84728 20.0772 4.84728 19.9825 4.84728C19.2085 4.84466 18.5758 4.84466 17.991 4.84728C17.3544 4.85121 17.0147 5.11971 16.8552 5.74445C16.8112 5.91733 16.7658 6.0889 16.7217 6.26179C16.5882 6.77389 16.452 7.30171 16.3327 7.82822C16.3055 7.94609 16.3016 7.95657 16.1421 7.95788C11.7222 7.95264 7.3022 7.95264 2.88094 7.95395H1.13577C0.304677 7.95395 0.0816691 8.43986 0.0220275 8.73062C-0.0220555 8.94803 0.0155447 9.17592 0.0544414 9.32916C0.495271 11.0632 0.942584 12.796 1.3899 14.5288L1.97205 16.7828C2.10949 17.3159 2.24692 17.8489 2.38436 18.382C2.54383 19.0002 2.87835 19.2634 3.50588 19.2634C5.33921 19.2634 7.17384 19.2634 9.00718 19.2634C10.8405 19.2634 12.6751 19.2634 14.5085 19.2634C15.1256 19.2634 15.4692 18.9975 15.6235 18.4016C16.2601 15.9275 16.8967 13.4535 17.5333 10.9794L18.581 6.90879C18.5887 6.87998 18.5965 6.85116 18.6043 6.82235H19.1696C19.7712 6.82235 20.3689 6.82235 20.9679 6.82366C20.9692 6.82366 20.9705 6.82366 20.9718 6.82366C21.3232 6.82366 21.6006 6.69268 21.7977 6.43598C22.013 6.14915 22.0622 5.76802 21.9222 5.44059ZM15.7726 9.95128L13.8809 17.2988H11.8868C9.31057 17.2988 6.73431 17.2988 4.15805 17.3028C4.14119 17.3041 4.13082 17.3014 4.12434 17.3001C4.12045 17.291 4.11397 17.2726 4.10489 17.2399C3.74056 15.8188 3.37363 14.3978 3.0067 12.9767L2.52438 11.1091C2.44141 10.7895 2.36102 10.4686 2.27934 10.1425L2.23136 9.95128H15.7726Z" fill="#01154B"/>
<path d="M4.99304 19.7415C4.99044 19.7415 4.98655 19.7415 4.98396 19.7415C4.30845 19.7441 3.63813 20.0348 3.14414 20.5417C2.65405 21.0433 2.37788 21.7178 2.38566 22.391C2.40122 23.8304 3.5772 25 5.0073 25C5.0086 25 5.01119 25 5.01378 25C6.43611 24.9974 7.59264 23.8186 7.59004 22.374C7.58875 21.6733 7.31388 21.0106 6.816 20.5103C6.32201 20.0139 5.67503 19.7415 4.99304 19.7415ZM4.34865 22.3897C4.34605 22.209 4.41088 22.0413 4.53017 21.9182C4.64815 21.7964 4.80893 21.7296 4.98396 21.7283C4.98526 21.7283 4.98785 21.7283 4.98915 21.7283C5.16548 21.7283 5.33014 21.7964 5.45461 21.9208C5.57649 22.0426 5.64391 22.2037 5.64521 22.374C5.6465 22.5403 5.57519 22.708 5.44943 22.835C5.32366 22.9621 5.1577 23.0341 4.99304 23.0341C4.99174 23.0341 4.99174 23.0341 4.99044 23.0341C4.64167 23.0328 4.35383 22.7433 4.34865 22.3897Z" fill="#01154B"/>
<path d="M13.0187 19.7415C13.0161 19.7415 13.0135 19.7415 13.0109 19.7415C12.329 19.7415 11.682 20.0152 11.188 20.5116C10.6888 21.0132 10.4139 21.6746 10.4139 22.374C10.4139 23.0734 10.6836 23.7322 11.175 24.2286C11.6677 24.7263 12.3212 25 13.0161 25H13.0174C13.7007 25 14.3749 24.7106 14.8663 24.2063C15.359 23.7021 15.6274 23.0472 15.6183 22.3622C15.6015 20.9464 14.4112 19.7467 13.0187 19.7415ZM12.3588 22.3701C12.3627 22.0191 12.6518 21.7309 13.0032 21.7283C13.0045 21.7283 13.0071 21.7283 13.0084 21.7283C13.1847 21.7283 13.3493 21.7951 13.4699 21.9169C13.5905 22.0374 13.6566 22.1998 13.6566 22.374C13.6566 22.5495 13.5879 22.7172 13.4621 22.8429C13.339 22.966 13.1795 23.0341 13.0122 23.0341C13.0109 23.0341 13.0096 23.0341 13.0096 23.0341C12.8424 23.0328 12.6751 22.9595 12.5494 22.8311C12.4262 22.7041 12.3562 22.5364 12.3588 22.3701Z" fill="#01154B"/>
<path d="M11.0817 6.05354C11.2282 6.12558 11.3747 6.16094 11.5173 6.16094C11.7403 6.16094 11.9543 6.0745 12.1423 5.90292C12.3303 5.73135 12.5092 5.54799 12.6816 5.37117C12.7478 5.30307 12.8152 5.23365 12.8826 5.16686L13.2884 4.75822C13.7331 4.3103 14.1779 3.86237 14.62 3.41052C14.9065 3.11845 14.9921 2.75304 14.8637 2.3837C14.7354 2.01697 14.4631 1.7917 14.0767 1.72883C13.7733 1.68037 13.4933 1.77336 13.2677 1.99995L13.1471 2.12175C12.3757 2.8958 11.577 3.69604 10.8042 4.49628C10.6862 4.61808 10.6227 4.77394 10.576 4.8892C10.5618 4.92325 10.5488 4.95468 10.5371 4.97957L10.5112 5.02803L10.5151 5.08304C10.5475 5.57025 10.7277 5.87935 11.0817 6.05354Z" fill="#01154B"/>
<path d="M3.38921 3.41052C4.18271 4.21993 5.00472 5.05815 5.82674 5.86756C5.95121 5.98936 6.11069 6.05616 6.22738 6.10462C6.26238 6.11903 6.2935 6.13212 6.31684 6.14391L6.36611 6.17011L6.42186 6.16618C6.8977 6.12819 7.1998 5.94876 7.36965 5.60038C7.54727 5.24151 7.50449 4.86824 7.25166 4.55129C7.15701 4.43341 7.05199 4.32863 6.94956 4.22779C6.91585 4.19504 6.88214 4.16099 6.84843 4.12825C6.15996 3.43147 5.47148 2.7347 4.78172 2.03924C4.47962 1.73538 4.12306 1.64239 3.74965 1.77074C3.39699 1.89124 3.17269 2.15449 3.09878 2.53038C3.03655 2.84472 3.1286 3.14595 3.3568 3.37908L3.38921 3.41052Z" fill="#01154B"/>
<path d="M5.67373 12.7947C5.75412 13.5727 5.83451 14.3519 5.91619 15.1299L5.92527 15.2164C5.93693 15.3408 5.9499 15.4705 5.98102 15.5988C6.09382 16.0572 6.46204 16.344 6.91065 16.344C6.97548 16.344 7.0429 16.3375 7.11162 16.3257C7.59394 16.2379 7.9453 15.7625 7.89474 15.2661C7.79101 14.2341 7.67692 13.1234 7.533 11.7692C7.47595 11.2296 7.01437 10.8406 6.48408 10.8812C6.22736 10.9008 5.97453 11.0344 5.80728 11.2387C5.63484 11.4483 5.56093 11.7155 5.59335 12.0102L5.67373 12.7947Z" fill="#01154B"/>
<path d="M10.8911 16.327C10.9598 16.3401 11.0285 16.3467 11.0946 16.3467C11.2969 16.3467 11.4888 16.289 11.6483 16.1777C11.8479 16.0389 11.9815 15.8215 12.0269 15.5674C12.0891 15.2124 12.1241 14.851 12.1578 14.5013C12.1695 14.3834 12.1799 14.2668 12.1928 14.1503C12.246 13.6447 12.2966 13.1391 12.3471 12.6336L12.4119 11.9905C12.4405 11.705 12.3666 11.4457 12.1967 11.24C12.0308 11.0383 11.7792 10.9048 11.5238 10.8838C10.965 10.8393 10.5332 11.2309 10.4697 11.8399L10.3712 12.7764C10.2843 13.5975 10.1974 14.4201 10.1119 15.2413C10.0587 15.7573 10.401 16.2353 10.8911 16.327Z" fill="#01154B"/>
</g>
<defs>
<clipPath id="clip0_5_5">
<rect width="22" height="25" fill="white"/>
</clipPath>
</defs>
</svg>
