<svg width="21" height="21" viewBox="0 0 21 21" fill="none" xmlns="http://www.w3.org/2000/svg">
<g clip-path="url(#clip0_5_19)">
<path d="M20.9998 19.5238C20.9054 19.8299 20.784 20.117 20.5629 20.3611C20.2758 20.6779 19.9347 20.8923 19.5234 21.0001C19.332 21.0001 19.1405 21.0001 18.9491 21.0001C18.8089 20.9556 18.6673 20.9152 18.5284 20.8639C18.0822 20.6995 17.7263 20.4069 17.3959 20.0766C16.0248 18.7041 14.6523 17.3316 13.2798 15.9604C13.0681 15.7501 12.9616 15.7353 12.6987 15.8742C12.638 15.9065 12.5787 15.9389 12.5194 15.9712C10.8624 16.8826 9.09894 17.2076 7.22625 16.9419C5.88342 16.7519 4.66058 16.2544 3.56986 15.4562C1.66481 14.0648 0.497248 12.2056 0.117048 9.8651C-0.147205 8.23914 0.0294128 6.65767 0.699482 5.16113C1.95738 2.35412 4.11724 0.664793 7.1548 0.12685C8.76997 -0.158975 10.3407 0.0446079 11.8439 0.679623C13.8097 1.51013 15.255 2.91229 16.2001 4.81868C16.9362 6.30173 17.1694 7.87916 16.9672 9.51456C16.8297 10.6349 16.4589 11.6852 15.8927 12.6667C15.7147 12.9755 15.7336 13.0577 15.9857 13.3112C17.3622 14.6877 18.7428 16.0616 20.114 17.4435C20.3189 17.6498 20.5117 17.8803 20.6586 18.1297C20.8056 18.3832 20.8878 18.6744 20.9984 18.9495C20.9998 19.1409 20.9998 19.3324 20.9998 19.5238ZM2.23916 8.51283C2.23242 11.9953 4.99494 14.7888 8.5219 14.805C11.9882 14.8212 14.8316 11.9697 14.806 8.50878C14.779 5.00609 12.0125 2.26514 8.5192 2.23413C5.03538 2.26784 2.2459 5.00069 2.23916 8.51283Z" fill="#01154B"/>
<path d="M6.34341 5.56683C6.49172 5.52234 6.64272 5.48459 6.78833 5.43201C8.69203 4.74172 10.6726 5.54257 11.557 7.36537C11.7201 7.70243 11.9305 7.96803 12.3349 8.00308C13.0225 8.06241 13.5173 7.40986 13.2302 6.78024C12.3983 4.948 10.9881 3.8411 8.99538 3.49056C7.98016 3.31125 7 3.45281 6.0468 3.82492C5.60458 3.9975 5.37673 4.39792 5.46302 4.85093C5.53852 5.24596 5.91602 5.54526 6.34341 5.56683Z" fill="#01154B"/>
</g>
<defs>
<clipPath id="clip0_5_19">
<rect width="21" height="21" fill="white"/>
</clipPath>
</defs>
</svg>
