<?xml version="1.0" encoding="UTF-8" standalone="no"?>
<!-- Created with Inkscape (http://www.inkscape.org/) -->

<svg
   version="1.1"
   id="svg1949"
   xml:space="preserve"
   width="1066.6667"
   height="1066.6667"
   viewBox="0 0 1066.6667 1066.6667"
   sodipodi:docname="duck-silhouette-10-pdv.svg"
   inkscape:version="1.1.2 (b8e25be833, 2022-02-05)"
   xmlns:inkscape="http://www.inkscape.org/namespaces/inkscape"
   xmlns:sodipodi="http://sodipodi.sourceforge.net/DTD/sodipodi-0.dtd"
   xmlns="http://www.w3.org/2000/svg"
   xmlns:svg="http://www.w3.org/2000/svg"><defs
     id="defs1953"><clipPath
       clipPathUnits="userSpaceOnUse"
       id="clipPath1963"><path
         d="M 0,800 H 800 V 0 H 0 Z"
         id="path1961" /></clipPath></defs><sodipodi:namedview
     id="namedview1951"
     pagecolor="#ffffff"
     bordercolor="#666666"
     borderopacity="1.0"
     inkscape:pageshadow="2"
     inkscape:pageopacity="0.0"
     inkscape:pagecheckerboard="0"
     showgrid="false"
     inkscape:zoom="0.77906244"
     inkscape:cx="533.33337"
     inkscape:cy="533.33337"
     inkscape:window-width="1920"
     inkscape:window-height="1018"
     inkscape:window-x="-8"
     inkscape:window-y="-8"
     inkscape:window-maximized="1"
     inkscape:current-layer="g1955" /><g
     id="g1955"
     inkscape:groupmode="layer"
     inkscape:label="duck-silhouette-10-pdv"
     transform="matrix(1.3333333,0,0,-1.3333333,0,1066.6667)"><g
       id="g1957"><g
         id="g1959"
         clip-path="url(#clipPath1963)"><path
           d="m 780.363,460.713 c 2.947,1.028 3.5,4.718 3.286,7.408 -0.295,2.155 -1.15,4.078 -2.325,5.817 l -6.767,-13.91 c 1.957,-0.047 3.905,0.119 5.806,0.685"
           style="fill:#b43227;fill-opacity:1;fill-rule:nonzero;stroke:none"
           id="path1965" /><path
           d="m 769.324,460.542 c 1.734,-0.261 3.487,-0.473 5.233,-0.514 l 6.767,13.91 c -1.764,2.604 -4.249,4.791 -6.661,6.715 -13.892,10.679 -31.284,14.923 -46.198,23.788 -7.278,4.139 -14.401,8.997 -20.671,14.709 l -4.384,-1.152 z"
           style="fill:#c32803;fill-opacity:1;fill-rule:nonzero;stroke:none"
           id="path1967" /><path
           d="m 707.794,519.15 c -0.937,0.853 -1.856,1.726 -2.753,2.619 l -1.631,-3.771 z"
           style="fill:#c10600;fill-opacity:1;fill-rule:nonzero;stroke:none"
           id="path1969" /><path
           d="m 705.041,521.769 c -0.757,0.753 -1.498,1.52 -2.223,2.302 l 0.592,-6.073 z"
           style="fill:#c60800;fill-opacity:1;fill-rule:nonzero;stroke:none"
           id="path1971" /><path
           d="m 685.146,483.478 c 9.98,-1.427 19.846,-3.874 29.434,-6.823 17.1,-5.62 33.96,-12.207 51.677,-15.626 1.012,-0.161 2.036,-0.331 3.067,-0.487 l -65.914,57.456 z"
           style="fill:#ce6a19;fill-opacity:1;fill-rule:nonzero;stroke:none"
           id="path1973" /><path
           d="m 617.902,319.818 19.472,49.832 c -2.056,3.223 -4.145,6.422 -5.971,9.779 -6.307,11.391 -12.11,23.447 -13.655,36.516 -0.776,5.36 -1.764,10.732 -2.554,16.12 l -32.483,-15.627 z"
           style="fill:#dbe26c;fill-opacity:1;fill-rule:nonzero;stroke:none"
           id="path1975" /><path
           d="m 646.701,296.59 c 0.659,2.462 1.25,4.943 1.763,7.445 1.473,6.634 1.559,13.434 2.152,20.154 0.037,0.499 0.064,0.999 0.088,1.499 l -32.802,-5.87 z"
           style="fill:#7ce0e0;fill-opacity:1;fill-rule:nonzero;stroke:none"
           id="path1977" /><path
           d="m 650.704,325.688 c 0.566,11.872 -2.348,23.772 -7.702,34.346 -1.663,3.333 -3.63,6.484 -5.628,9.616 l -19.472,-49.832 z"
           style="fill:#b3df83;fill-opacity:1;fill-rule:nonzero;stroke:none"
           id="path1979" /><path
           d="m 652.013,599.283 c -8.61,6.616 -18.38,11.717 -28.779,14.877 -17.724,5.542 -37.419,6.428 -54.915,-0.381 -0.02,-0.007 -0.041,-0.016 -0.061,-0.024 l 3.033,-101.005 z"
           style="fill:#df2200;fill-opacity:1;fill-rule:nonzero;stroke:none"
           id="path1981" /><path
           d="m 599.874,213.118 c 3.787,2.521 7.163,5.73 10.196,9.064 11.133,12.57 18.205,27.984 25.089,43.126 l -67.573,13.762 z"
           style="fill:#24b8ec;fill-opacity:1;fill-rule:nonzero;stroke:none"
           id="path1983" /><path
           d="m 703.41,517.998 -0.592,6.073 c -5.047,5.44 -9.284,11.571 -12.24,18.487 -6.039,16.307 -14.217,32.084 -25.982,45.043 -3.817,4.274 -8.038,8.19 -12.583,11.682 L 571.291,512.75 Z"
           style="fill:#dc2b00;fill-opacity:1;fill-rule:nonzero;stroke:none"
           id="path1985" /><path
           d="m 571.291,512.75 63.543,-33.322 c 5.584,2.107 11.43,3.513 17.334,4.384 10.988,1.572 22.053,1.23 32.978,-0.334 l 18.264,34.52 z"
           style="fill:#df5e00;fill-opacity:1;fill-rule:nonzero;stroke:none"
           id="path1987" /><path
           d="m 567.586,279.07 67.573,-13.762 c 0.086,0.191 0.173,0.38 0.259,0.57 4.414,9.972 8.464,20.172 11.283,30.712 l -28.799,23.228 z"
           style="fill:#71d9ef;fill-opacity:1;fill-rule:nonzero;stroke:none"
           id="path1989" /><path
           d="m 582.711,416.438 32.483,15.627 c -1.074,7.332 -1.781,14.695 -1.087,22.101 0.925,9.745 6.967,18.8 15.769,23.17 1.625,0.765 3.28,1.459 4.958,2.092 l -63.543,33.322 z"
           style="fill:#e8880e;fill-opacity:1;fill-rule:nonzero;stroke:none"
           id="path1991" /><path
           d="m 582.711,416.438 -46.611,-70.69 81.802,-25.93 z"
           style="fill:#def085;fill-opacity:1;fill-rule:nonzero;stroke:none"
           id="path1993" /><path
           d="m 521.395,215.268 c 6.882,-0.427 13.75,-1.207 20.588,-2.42 6.079,-0.974 12.009,-2.906 18.214,-3.016 10.253,-0.981 20.582,-1.52 30.858,-0.871 3.172,0.893 6.101,2.349 8.819,4.157 l -32.288,65.952 z"
           style="fill:#3fc1ed;fill-opacity:1;fill-rule:nonzero;stroke:none"
           id="path1995" /><path
           d="m 478.374,218.257 0.876,-4.329 c 14.01,1.58 28.106,2.208 42.145,1.34 l 46.191,63.802 z"
           style="fill:#92ebdc;fill-opacity:1;fill-rule:nonzero;stroke:none"
           id="path1997" /><path
           d="m 571.291,512.75 -37.905,-74.921 c 0.523,-1.422 1.022,-2.851 1.501,-4.289 l 47.824,-17.102 z"
           style="fill:#f38b06;fill-opacity:1;fill-rule:nonzero;stroke:none"
           id="path1999" /><path
           d="M 617.902,319.818 536.1,345.748 567.586,279.07 Z"
           style="fill:#bcf3bf;fill-opacity:1;fill-rule:nonzero;stroke:none"
           id="path2001" /><path
           d="m 555.064,606.803 c -8.149,-5.538 -15.145,-12.798 -20.793,-20.856 -8.347,-11.896 -14.548,-25.226 -18.593,-39.179 l 5.912,-48.526 z"
           style="fill:#ef3500;fill-opacity:1;fill-rule:nonzero;stroke:none"
           id="path2003" /><path
           d="m 571.291,512.75 -3.033,101.005 c -4.675,-1.798 -9.082,-4.155 -13.194,-6.952 L 521.59,498.242 Z"
           style="fill:#f43800;fill-opacity:1;fill-rule:nonzero;stroke:none"
           id="path2005" /><path
           d="m 521.59,498.242 8.303,-51.832 c 1.263,-2.822 2.426,-5.684 3.493,-8.581 l 37.905,74.921 z"
           style="fill:#f77700;fill-opacity:1;fill-rule:nonzero;stroke:none"
           id="path2007" /><path
           d="m 582.711,416.438 -47.824,17.102 c 5.386,-16.224 7.881,-33.409 8.092,-50.485 0.357,-3.681 -2.445,-6.564 -4.605,-9.199 -1.181,-0.437 -2.384,-0.736 -3.596,-0.919 l 1.322,-27.189 z"
           style="fill:#f2dc57;fill-opacity:1;fill-rule:nonzero;stroke:none"
           id="path2009" /><path
           d="m 515.678,546.768 c -0.85,-2.928 -1.607,-5.882 -2.265,-8.857 -2.728,-11.635 -4.253,-23.819 -3.662,-35.827 l 11.839,-3.842 z"
           style="fill:#fb6100;fill-opacity:1;fill-rule:nonzero;stroke:none"
           id="path2011" /><path
           d="M 536.1,345.748 441.022,314.569 567.586,279.07 Z"
           style="fill:#daf898;fill-opacity:1;fill-rule:nonzero;stroke:none"
           id="path2013" /><path
           d="m 567.586,279.07 -126.564,35.499 37.352,-96.312 z"
           style="fill:#c9f5c5;fill-opacity:1;fill-rule:nonzero;stroke:none"
           id="path2015" /><path
           d="m 496.905,388.51 c -5.713,4.351 -11.124,9.129 -16.399,13.954 -14.94,14.194 -30.201,28.253 -47.515,39.542 -7.505,5.09 -15.803,8.691 -24.287,11.797 l 32.318,-139.234 z"
           style="fill:#ffd100;fill-opacity:1;fill-rule:nonzero;stroke:none"
           id="path2017" /><path
           d="m 536.1,345.748 -1.322,27.189 c -5.934,-0.907 -12.158,0.957 -17.612,3.23 -7.272,3.248 -13.949,7.537 -20.261,12.343 l -55.883,-73.941 z"
           style="fill:#f9ee3c;fill-opacity:1;fill-rule:nonzero;stroke:none"
           id="path2019" /><path
           d="m 510.461,494.189 c 0.884,-6.707 2.504,-13.308 5.025,-19.671 3.009,-8.169 8.298,-15.215 12.018,-23.045 0.835,-1.671 1.629,-3.36 2.389,-5.063 l -8.303,51.832 z"
           style="fill:#fd9d00;fill-opacity:1;fill-rule:nonzero;stroke:none"
           id="path2021" /><path
           d="m 509.751,502.084 c 0.132,-2.642 0.364,-5.276 0.71,-7.895 l 11.129,4.053 z"
           style="fill:#ff9300;fill-opacity:1;fill-rule:nonzero;stroke:none"
           id="path2023" /><path
           d="m 478.374,218.257 -37.352,96.312 -9.57,-89.52 z"
           style="fill:#cef38f;fill-opacity:1;fill-rule:nonzero;stroke:none"
           id="path2025" /><path
           d="m 431.452,225.049 16.416,-16.06 c 10.371,2.026 20.854,3.75 31.382,4.939 l -0.876,4.329 z"
           style="fill:#9ceaa7;fill-opacity:1;fill-rule:nonzero;stroke:none"
           id="path2027" /><path
           d="m 426.622,205.271 c 5.302,0.837 10.594,1.725 15.877,2.645 1.787,0.368 3.577,0.725 5.369,1.073 l -16.416,16.06 z"
           style="fill:#9fe298;fill-opacity:1;fill-rule:nonzero;stroke:none"
           id="path2029" /><path
           d="m 441.022,314.569 -32.318,139.234 c -0.719,0.264 -1.439,0.523 -2.16,0.78 l -69.86,-110.687 z"
           style="fill:#ffce00;fill-opacity:1;fill-rule:nonzero;stroke:none"
           id="path2031" /><path
           d="M 431.452,225.049 336.684,343.896 307.049,229.371 Z"
           style="fill:#f0d24a;fill-opacity:1;fill-rule:nonzero;stroke:none"
           id="path2033" /><path
           d="M 441.022,314.569 336.684,343.896 431.452,225.049 Z"
           style="fill:#f6e748;fill-opacity:1;fill-rule:nonzero;stroke:none"
           id="path2035" /><path
           d="m 307.049,229.371 46.608,-30.762 c 1.168,-0.004 2.338,-0.005 3.506,-0.011 23.294,0.336 46.463,3.039 69.459,6.673 l 4.83,19.778 z"
           style="fill:#c9df77;fill-opacity:1;fill-rule:nonzero;stroke:none"
           id="path2037" /><path
           d="m 336.684,343.896 69.86,110.687 c -1.061,0.377 -2.124,0.749 -3.187,1.116 l -124.09,-31.543 z"
           style="fill:#feb200;fill-opacity:1;fill-rule:nonzero;stroke:none"
           id="path2039" /><path
           d="m 296.308,198.579 c 19.115,-0.094 38.236,0.092 57.349,0.03 l -46.608,30.762 z"
           style="fill:#d3c15d;fill-opacity:1;fill-rule:nonzero;stroke:none"
           id="path2041" /><path
           d="m 403.357,455.699 c -2.143,0.739 -4.29,1.46 -6.431,2.179 -23.447,7.6 -48.074,11.874 -72.758,11.565 -8.642,-0.056 -17.271,-0.696 -25.824,-1.88 l -19.077,-43.407 z"
           style="fill:#fe9400;fill-opacity:1;fill-rule:nonzero;stroke:none"
           id="path2043" /><path
           d="m 307.049,229.371 29.635,114.525 -112.673,0.617 z"
           style="fill:#fb9b00;fill-opacity:1;fill-rule:nonzero;stroke:none"
           id="path2045" /><path
           d="m 336.684,343.896 -57.417,80.26 -55.256,-79.643 z"
           style="fill:#ffa300;fill-opacity:1;fill-rule:nonzero;stroke:none"
           id="path2047" /><path
           d="m 298.344,467.563 c -14.122,-1.954 -28.04,-5.391 -41.48,-10.144 -1.794,-0.698 -3.578,-1.415 -5.36,-2.143 l 27.763,-31.12 z"
           style="fill:#fd7700;fill-opacity:1;fill-rule:nonzero;stroke:none"
           id="path2049" /><path
           d="m 180.485,235.854 126.564,-6.483 -83.038,115.142 z"
           style="fill:#f56500;fill-opacity:1;fill-rule:nonzero;stroke:none"
           id="path2051" /><path
           d="m 180.485,235.854 50.532,-35.599 c 4.826,-0.179 9.653,-0.308 14.48,-0.383 16.926,-0.902 33.867,-1.209 50.811,-1.293 l 10.741,30.792 z"
           style="fill:#e07102;fill-opacity:1;fill-rule:nonzero;stroke:none"
           id="path2053" /><path
           d="m 279.267,424.156 -89.213,-9.261 33.957,-70.382 z"
           style="fill:#ff8800;fill-opacity:1;fill-rule:nonzero;stroke:none"
           id="path2055" /><path
           d="m 279.267,424.156 -27.763,31.12 c -21.347,-8.711 -41.815,-19.43 -61.251,-31.799 l -0.199,-8.582 z"
           style="fill:#fd7400;fill-opacity:1;fill-rule:nonzero;stroke:none"
           id="path2057" /><path
           d="m 181.989,203.862 c 16.285,-1.801 32.648,-3.003 49.028,-3.607 l -50.532,35.599 z"
           style="fill:#d54200;fill-opacity:1;fill-rule:nonzero;stroke:none"
           id="path2059" /><path
           d="m 190.253,423.477 c -3.522,-2.242 -7.007,-4.541 -10.461,-6.889 l 10.262,-1.693 z"
           style="fill:#fa6200;fill-opacity:1;fill-rule:nonzero;stroke:none"
           id="path2061" /><path
           d="m 190.054,414.895 -71.616,-56.8 105.573,-13.582 z"
           style="fill:#ff7200;fill-opacity:1;fill-rule:nonzero;stroke:none"
           id="path2063" /><path
           d="M 224.011,344.513 118.438,358.095 180.485,235.854 Z"
           style="fill:#fc6300;fill-opacity:1;fill-rule:nonzero;stroke:none"
           id="path2065" /><path
           d="m 118.438,358.095 -0.299,-134.736 c 1.992,-1.104 4.03,-2.134 6.103,-3.097 l 56.243,15.592 z"
           style="fill:#f23700;fill-opacity:1;fill-rule:nonzero;stroke:none"
           id="path2067" /><path
           d="m 124.242,220.262 c 5.4,-2.514 11.026,-4.591 16.626,-6.489 11.51,-4.132 23.345,-7.441 35.449,-9.261 1.889,-0.226 3.781,-0.44 5.672,-0.65 l -1.504,31.992 z"
           style="fill:#db2f00;fill-opacity:1;fill-rule:nonzero;stroke:none"
           id="path2069" /><path
           d="m 190.054,414.895 -10.262,1.693 c -20.224,-13.747 -39.259,-29.27 -56.917,-46.144 -1.033,-0.944 -2.042,-1.911 -3.042,-2.886 l -1.395,-9.463 z"
           style="fill:#fa6800;fill-opacity:1;fill-rule:nonzero;stroke:none"
           id="path2071" /><path
           d="m 81.109,255.064 c 7.409,-8.271 16.085,-15.261 24.287,-22.71 2.222,-2.016 4.582,-3.84 7.045,-5.505 l -82.29,119.824 -3.502,-18.336 c 12.8,-20.508 25.106,-41.416 41.128,-59.625 4.133,-4.844 9.151,-8.834 13.332,-13.648"
           style="fill:#e21c00;fill-opacity:1;fill-rule:nonzero;stroke:none"
           id="path2073" /><path
           d="m 112.441,226.849 c 1.845,-1.248 3.749,-2.405 5.698,-3.49 l 0.299,134.736 -9.441,-1.222 c -0.614,-0.568 -1.231,-1.132 -1.86,-1.685 -7.885,-6.815 -18.699,-9.578 -28.957,-8.414 -5.7,0.458 -11.096,2.118 -16.441,3.987 l -31.588,-4.088 z"
           style="fill:#f24600;fill-opacity:1;fill-rule:nonzero;stroke:none"
           id="path2075" /><path
           d="m 119.833,367.558 c -2.141,-2.087 -4.232,-4.225 -6.346,-6.336 l 4.951,-3.127 z"
           style="fill:#f55e00;fill-opacity:1;fill-rule:nonzero;stroke:none"
           id="path2077" /><path
           d="m 61.739,350.761 c -4.433,1.55 -8.833,3.245 -13.341,4.522 -4.882,1.575 -9.82,2.979 -14.793,4.237 l -3.454,-12.847 z"
           style="fill:#f15700;fill-opacity:1;fill-rule:nonzero;stroke:none"
           id="path2079" /><path
           d="m 113.487,361.222 c -1.474,-1.474 -2.963,-2.932 -4.49,-4.349 l 9.441,1.222 z"
           style="fill:#f15700;fill-opacity:1;fill-rule:nonzero;stroke:none"
           id="path2081" /><path
           d="m 33.605,359.52 c -2.283,0.576 -4.576,1.12 -6.873,1.638 l 3.419,-14.485 z"
           style="fill:#e24b00;fill-opacity:1;fill-rule:nonzero;stroke:none"
           id="path2083" /><path
           d="m 26.732,361.158 c -2.839,0.64 -5.687,1.24 -8.541,1.798 v -21.335 c 2.872,-4.389 5.676,-8.827 8.458,-13.284 l 3.502,18.336 z"
           style="fill:#e24d00;fill-opacity:1;fill-rule:nonzero;stroke:none"
           id="path2085" /></g></g></g></svg>
